<?xml version="1.0" encoding="UTF-8" standalone="no"?>
<svg width="40px" height="40px" viewBox="0 0 40 40" version="1.1" xmlns="http://www.w3.org/2000/svg" xmlns:xlink="http://www.w3.org/1999/xlink">
    <!-- Generator: sketchtool 3.6.1 (26313) - http://www.bohemiancoding.com/sketch -->
    <title>minus</title>
    <desc>Created with sketchtool.</desc>
    <defs></defs>
    <g id="Rounded" stroke="none" stroke-width="1" fill="none" fill-rule="evenodd">
        <g id="find-a-room-copy" transform="translate(-715.000000, -408.000000)" fill="#8D99AE">
            <g id="number-picker" transform="translate(585.000000, 391.000000)">
                <path d="M150,17 C138.954545,17 130,25.9540909 130,37 C130,48.0459091 138.954545,57 150,57 C161.045455,57 170,48.0459091 170,37 C170,25.9540909 161.045455,17 150,17 L150,17 Z M150,53.3636364 C140.962727,53.3636364 133.636364,46.0372727 133.636364,37 C133.636364,27.9627273 140.962727,20.6363636 150,20.6363636 C159.037273,20.6363636 166.363636,27.9627273 166.363636,37 C166.363636,46.0372727 159.037273,53.3636364 150,53.3636364 L150,53.3636364 Z M157.272727,35.1818182 L142.727273,35.1818182 C141.723182,35.1818182 140.909091,35.9959091 140.909091,37 C140.909091,38.0040909 141.723182,38.8181818 142.727273,38.8181818 L157.272727,38.8181818 C158.276818,38.8181818 159.090909,38.0040909 159.090909,37 C159.090909,35.9959091 158.276818,35.1818182 157.272727,35.1818182 L157.272727,35.1818182 Z" id="minus"></path>
            </g>
        </g>
    </g>
</svg>