<?xml version="1.0" encoding="UTF-8" standalone="no"?>
<svg width="32px" height="32px" viewBox="0 0 32 32" version="1.1" xmlns="http://www.w3.org/2000/svg" xmlns:xlink="http://www.w3.org/1999/xlink">
    <!-- Generator: sketchtool 3.6.1 (26313) - http://www.bohemiancoding.com/sketch -->
    <title>Combined Shape</title>
    <desc>Created with sketchtool.</desc>
    <defs></defs>
    <g id="Rounded" stroke="none" stroke-width="1" fill="none" fill-rule="evenodd">
        <g id="find-a-room-copy" transform="translate(-210.000000, -400.000000)" fill="#8D99AE">
            <g id="phone" transform="translate(203.000000, 400.000000)">
                <path d="M28.8947368,16.8421053 L32.2631579,16.8421053 C32.2631579,11.2690526 27.7309474,6.73684211 22.1578947,6.73684211 L22.1578947,10.1052632 C25.8732632,10.1052632 28.8947368,13.1284211 28.8947368,16.8421053 Z M22.1578947,0 L22.1578947,3.36842105 C29.5869474,3.36842105 35.6315789,9.41305263 35.6315789,16.8421053 L39,16.8421053 C39,7.55536842 31.4463158,0 22.1578947,0 Z M22.1578947,13.4736842 L22.1578947,16.8421053 L25.5263158,16.8421053 C25.5263158,14.9827368 24.0189474,13.4736842 22.1578947,13.4736842 Z M33.9473684,21.8947368 L27.2105263,21.8947368 C26.2791579,21.8947368 25.5263158,22.6475789 25.5263158,23.5789474 L25.5263158,25.2631579 C18.7894737,25.2631579 13.8429474,20.1061053 13.7368421,13.4736842 L15.4210526,13.4736842 C16.3524211,13.4736842 17.1052632,12.7208421 17.1052632,11.7894737 L17.1052632,5.05263158 C17.1052632,4.12126316 16.3524211,3.36842105 15.4210526,3.36842105 L8.68421053,3.36842105 C7.75452632,3.36842105 7,4.12126316 7,5.05263158 L7,13.4736842 C7,23.7052632 15.2947368,32 25.5263158,32 L33.9473684,32 C34.8787368,32 35.6315789,31.2471579 35.6315789,30.3157895 L35.6315789,23.5789474 C35.6315789,22.6475789 34.8787368,21.8947368 33.9473684,21.8947368 Z" id="Combined-Shape"></path>
            </g>
        </g>
    </g>
</svg>