<?xml version="1.0" encoding="UTF-8" standalone="no"?>
<svg width="31px" height="32px" viewBox="0 0 31 32" version="1.1" xmlns="http://www.w3.org/2000/svg" xmlns:xlink="http://www.w3.org/1999/xlink">
    <!-- Generator: sketchtool 3.6.1 (26313) - http://www.bohemiancoding.com/sketch -->
    <title>whiteboard</title>
    <desc>Created with sketchtool.</desc>
    <defs></defs>
    <g id="Rounded" stroke="none" stroke-width="1" fill="none" fill-rule="evenodd">
        <g id="find-a-room-copy" transform="translate(-370.000000, -400.000000)" fill="#8D99AE">
            <g id="whiteboard" transform="translate(341.000000, 400.000000)">
                <g transform="translate(29.000000, 0.000000)" id="Shape">
                    <path d="M25.6,32 L3.2,32 C1.4352,32 0,30.5648 0,28.8 L0,6.4 C0,4.6368 1.4352,3.2 3.2,3.2 L14.4,3.2 L14.4,6.4 L3.2,6.4 L3.2,28.8 L25.6,28.8 L25.6,14.4 L28.8,14.4 L28.8,28.8 C28.8,30.5648 27.3648,32 25.6,32 L25.6,32 Z"></path>
                    <path d="M12.4928,13.384 L17.0176,17.9072 L11.3616,19.0384 L12.4928,13.384 Z"></path>
                    <path d="M29.4624,5.4624 C30.712,4.2128 30.712,2.1872 29.4624,0.9376 C28.2128,-0.312 26.1872,-0.312 24.9376,0.9376 L14.7552,11.12 L19.2816,15.6464 L29.4624,5.4624 L29.4624,5.4624 Z"></path>
                </g>
            </g>
        </g>
    </g>
</svg>