<?xml version="1.0" encoding="UTF-8" standalone="no"?>
<svg width="33px" height="32px" viewBox="0 0 33 32" version="1.1" xmlns="http://www.w3.org/2000/svg" xmlns:xlink="http://www.w3.org/1999/xlink">
    <!-- Generator: sketchtool 3.6.1 (26313) - http://www.bohemiancoding.com/sketch -->
    <title>tv-television</title>
    <desc>Created with sketchtool.</desc>
    <defs></defs>
    <g id="Rounded" stroke="none" stroke-width="1" fill="none" fill-rule="evenodd">
        <g id="find-a-room-copy" transform="translate(-70.000000, -400.000000)" fill="#8D99AE">
            <g id="display" transform="translate(59.000000, 400.000000)">
                <path d="M36.0087811,17.9950826 C34.3511991,17.9950826 33.0077274,16.6516109 33.0077274,14.9940288 C33.0077274,13.3364468 34.3511991,11.9929751 36.0087811,11.9929751 C37.6663631,11.9929751 39.0098348,13.3364468 39.0098348,14.9940288 C39.0098348,16.6516109 37.6663631,17.9950826 36.0087811,17.9950826 L36.0087811,17.9950826 L36.0087811,17.9950826 Z M38.0094836,24.9975413 L34.0080786,24.9975413 C33.4548844,24.9975413 33.0077274,24.5503843 33.0077274,23.99719 C33.0077274,23.4439958 33.4548844,22.9968388 34.0080786,22.9968388 L38.0094836,22.9968388 C38.5626778,22.9968388 39.0098348,23.4439958 39.0098348,23.99719 C39.0098348,24.5503843 38.5626778,24.9975413 38.0094836,24.9975413 L38.0094836,24.9975413 L38.0094836,24.9975413 Z M38.0094836,27.998595 L34.0080786,27.998595 C33.4548844,27.998595 33.0077274,27.551438 33.0077274,26.9982438 C33.0077274,26.4450495 33.4548844,25.9978925 34.0080786,25.9978925 L38.0094836,25.9978925 C38.5626778,25.9978925 39.0098348,26.4450495 39.0098348,26.9982438 C39.0098348,27.551438 38.5626778,27.998595 38.0094836,27.998595 L38.0094836,27.998595 L38.0094836,27.998595 Z M31.0070249,25.9978925 C31.0070249,27.1022803 30.1107102,27.998595 29.0063224,27.998595 L17.0021075,27.998595 C15.8977197,27.998595 15.001405,27.1022803 15.001405,25.9978925 L15.001405,13.9936776 C15.001405,12.8892898 15.8977197,11.9929751 17.0021075,11.9929751 L29.0063224,11.9929751 C30.1107102,11.9929751 31.0070249,12.8892898 31.0070249,13.9936776 L31.0070249,25.9978925 L31.0070249,25.9978925 L31.0070249,25.9978925 Z M39.0098348,7.99157013 L29.7525844,7.99157013 L38.5276655,1.95445037 C38.9908282,1.63533832 39.1228745,0.977107203 38.8227692,0.484934391 C38.5236641,-0.00723842141 37.9044467,-0.148287947 37.4402837,0.1708241 C37.4402837,0.1708241 27.8269083,6.80815461 27.0146231,7.29832672 L16.5709561,0.1708241 C16.1077935,-0.148287947 15.4875757,-0.00723842141 15.1884707,0.484934391 C14.8883653,0.977107203 15.0204117,1.63533832 15.4835743,1.95445037 L24.2586554,7.99157013 L15.001405,7.99157013 C12.7916291,7.99157013 11,9.78319921 11,11.9929751 L11,27.998595 C11,30.2083709 12.7916291,32 15.001405,32 L39.0098348,32 C41.2196107,32 43.0112398,30.2083709 43.0112398,27.998595 L43.0112398,11.9929751 C43.0112398,9.78319921 41.2196107,7.99157013 39.0098348,7.99157013 L39.0098348,7.99157013 L39.0098348,7.99157013 Z M35.0084299,15.9943801 L37.0091324,15.9943801 L37.0091324,13.9936776 L35.0084299,13.9936776 L35.0084299,15.9943801 L35.0084299,15.9943801 Z M28.0059712,13.9936776 L18.0024587,13.9936776 C17.4492645,13.9936776 17.0021075,14.441835 17.0021075,14.9940288 L17.0021075,24.9975413 C17.0021075,25.5507355 17.4492645,25.9978925 18.0024587,25.9978925 L28.0059712,25.9978925 C28.5591654,25.9978925 29.0063224,25.5507355 29.0063224,24.9975413 L29.0063224,14.9940288 C29.0063224,14.441835 28.5591654,13.9936776 28.0059712,13.9936776 L28.0059712,13.9936776 L28.0059712,13.9936776 Z" id="tv-television"></path>
            </g>
        </g>
    </g>
</svg>