<?xml version="1.0" encoding="UTF-8" standalone="no"?>
<svg width="40px" height="40px" viewBox="0 0 40 40" version="1.1" xmlns="http://www.w3.org/2000/svg" xmlns:xlink="http://www.w3.org/1999/xlink">
    <!-- Generator: sketchtool 3.6.1 (26313) - http://www.bohemiancoding.com/sketch -->
    <title>plus</title>
    <desc>Created with sketchtool.</desc>
    <defs></defs>
    <g id="Rounded" stroke="none" stroke-width="1" fill="none" fill-rule="evenodd">
        <g id="find-a-room-copy" transform="translate(-655.000000, -408.000000)" fill="#8D99AE">
            <g id="number-picker" transform="translate(585.000000, 391.000000)">
                <path d="M90,17 C78.9545455,17 70,25.9540909 70,37 C70,48.0459091 78.9545455,57 90,57 C101.045455,57 110,48.0459091 110,37 C110,25.9540909 101.045455,17 90,17 L90,17 Z M90,53.3636364 C80.9627273,53.3636364 73.6363636,46.0372727 73.6363636,37 C73.6363636,27.9627273 80.9627273,20.6363636 90,20.6363636 C99.0372727,20.6363636 106.363636,27.9627273 106.363636,37 C106.363636,46.0372727 99.0372727,53.3636364 90,53.3636364 L90,53.3636364 Z M97.2727273,35.1818182 L91.8181818,35.1818182 L91.8181818,29.7272727 C91.8181818,28.7231818 91.0040909,27.9090909 90,27.9090909 C88.9959091,27.9090909 88.1818182,28.7231818 88.1818182,29.7272727 L88.1818182,35.1818182 L82.7272727,35.1818182 C81.7231818,35.1818182 80.9090909,35.9959091 80.9090909,37 C80.9090909,38.0040909 81.7231818,38.8181818 82.7272727,38.8181818 L88.1818182,38.8181818 L88.1818182,44.2727273 C88.1818182,45.2768182 88.9959091,46.0909091 90,46.0909091 C91.0040909,46.0909091 91.8181818,45.2768182 91.8181818,44.2727273 L91.8181818,38.8181818 L97.2727273,38.8181818 C98.2768182,38.8181818 99.0909091,38.0040909 99.0909091,37 C99.0909091,35.9959091 98.2768182,35.1818182 97.2727273,35.1818182 L97.2727273,35.1818182 Z" id="plus"></path>
            </g>
        </g>
    </g>
</svg>