<?xml version="1.0" encoding="utf-8"?>
<!-- Generator: Adobe Illustrator 18.1.0, SVG Export Plug-In . SVG Version: 6.00 Build 0)  -->
<svg version="1.1" xmlns="http://www.w3.org/2000/svg" xmlns:xlink="http://www.w3.org/1999/xlink" x="0px" y="0px"
	 viewBox="0 0 83 83" enable-background="new 0 0 83 83" xml:space="preserve">
<g id="Layer_2" display="none">
	<circle display="inline" fill="#ED1C24" cx="41.5" cy="41.5" r="41.5"/>
</g>
<g id="logo">
	<path fill="#D4451D" d="M41.5,0C22.1,0,5.9,13.3,1.3,31.3l17.2,10.2L1.3,51.8C5.9,69.7,22.1,83,41.5,83C64.5,83,83,64.4,83,41.5
		C83,18.6,64.5,0,41.5,0z M41.5,64C29,64,19,54,19,41.5C19,29,29,19,41.5,19C54,19,64.1,29,64.1,41.5C64.1,54,54,64,41.5,64z"/>
</g>
</svg>
